<svg xmlns="http://www.w3.org/2000/svg" x="0px" y="0px" viewBox="0 0 101 101" xml:space="preserve">
  <g id="XMLID_121_">
    <line id="XMLID_139_" fill="none" stroke="#FFFFFF" stroke-linecap="square" stroke-linejoin="round" stroke-miterlimit="10" x1="-25.9" y1="36.1" x2="27.8" y2="5.1" />
    <line id="XMLID_138_" fill="none" stroke="#FFFFFF" stroke-linecap="square" stroke-linejoin="round" stroke-miterlimit="10" x1="82.1" y1="36.1" x2="28.3" y2="67.1" />
    <polyline id="XMLID_137_" fill="none" stroke="#FFFFFF" stroke-linecap="square" stroke-linejoin="round" stroke-miterlimit="10" points="28.3,5.1 82.1,36.1 82.1,74.1 28.3,105.1     " />
    <polygon id="XMLID_136_" fill="none" stroke="#FFFFFF" stroke-linecap="square" stroke-linejoin="round" stroke-miterlimit="10" points="27.8,105.1 -25.9,74.1 -25.9,36.1 27.8,67.1  " />
    <ellipse id="XMLID_135_" fill="none" stroke="#FFFFFF" stroke-linecap="square" stroke-linejoin="round" stroke-miterlimit="10" cx="28.7" cy="42.9" rx="11.1" ry="5.1" />
    <path id="XMLID_134_" fill="none" stroke="#FFFFFF" stroke-linecap="square" stroke-linejoin="round" stroke-miterlimit="10" d="M17.6,42.9v7c0,2.8,5,5.1,11.1,5.1s11.1-2.3,11.1-5.1v-7" />
    <ellipse id="XMLID_133_" fill="none" stroke="#FFFFFF" stroke-linecap="square" stroke-linejoin="round" stroke-miterlimit="10" cx="28.7" cy="18.4" rx="11.1" ry="5.1" />
    <path id="XMLID_132_" fill="none" stroke="#FFFFFF" stroke-linecap="square" stroke-linejoin="round" stroke-miterlimit="10" d="M17.6,18.4v7c0,2.8,5,5.1,11.1,5.1s11.1-2.3,11.1-5.1v-7" />
    <ellipse id="XMLID_131_" fill="none" stroke="#FFFFFF" stroke-linecap="square" stroke-linejoin="round" stroke-miterlimit="10" cx="3" cy="30.8" rx="11.1" ry="5.1" />
    <path id="XMLID_130_" fill="none" stroke="#FFFFFF" stroke-linecap="square" stroke-linejoin="round" stroke-miterlimit="10" d="M-8.1,30.8v7c0,2.8,5,5.1,11.1,5.1S14,40.6,14,37.8v-7" />
    <ellipse id="XMLID_129_" fill="none" stroke="#FFFFFF" stroke-linecap="square" stroke-linejoin="round" stroke-miterlimit="10" cx="54" cy="30.8" rx="11.1" ry="5.1" />
    <path id="XMLID_123_" fill="none" stroke="#FFFFFF" stroke-linecap="square" stroke-linejoin="round" stroke-miterlimit="10" d="M42.9,30.8v7c0,2.8,5,5.1,11.1,5.1s11.1-2.3,11.1-5.1v-7" />
  </g>
</svg>
