
<svg xmlns="http://www.w3.org/2000/svg" x="0px" y="0px" viewBox="0 0 101 101" xml:space="preserve">
  <path id="XMLID_17_" fill="none" stroke="#FFFFFF" stroke-linecap="square" stroke-linejoin="round" stroke-miterlimit="10" d="
M62.2,76.3H38.8c-1,0-1.9-0.8-1.9-1.9v-1.8c0-1,0.8-1.9,1.9-1.9h23.3c1,0,1.9,0.8,1.9,1.9v1.8C64,75.5,63.2,76.3,62.2,76.3z" />
  <path id="XMLID_16_" fill="none" stroke="#FFFFFF" stroke-linecap="square" stroke-linejoin="round" stroke-miterlimit="10" d="
M79.6,39.9c0-16.1-13-29.1-29.1-29.1s-29.1,13-29.1,29.1c0,11.2,6.3,20.9,15.6,25.8c0,0.1,0,0.1,0,0.2V68c0,1.5,1.2,2.8,2.8,2.8
h21.5c1.5,0,2.8-1.2,2.8-2.8v-2.1c0-0.1,0-0.1,0-0.2C73.3,60.9,79.6,51.1,79.6,39.9z" />
  <path id="XMLID_15_" fill="none" stroke="#FFFFFF" stroke-linecap="square" stroke-linejoin="round" stroke-miterlimit="10" d="
M62.2,81.9H38.8c-1,0-1.9-0.8-1.9-1.9v-1.8c0-1,0.8-1.9,1.9-1.9h23.3c1,0,1.9,0.8,1.9,1.9V80C64,81.1,63.2,81.9,62.2,81.9z" />
  <path id="XMLID_14_" fill="none" stroke="#FFFFFF" stroke-linecap="square" stroke-linejoin="round" stroke-miterlimit="10" d="
M62.2,87.4H38.8c-1,0-1.9-0.8-1.9-1.9v-1.8c0-1,0.8-1.9,1.9-1.9h23.3c1,0,1.9,0.8,1.9,1.9v1.8C64,86.6,63.2,87.4,62.2,87.4z" />
  <path id="XMLID_13_" fill="none" stroke="#FFFFFF" stroke-linecap="square" stroke-linejoin="round" stroke-miterlimit="10" d="
M42.9,87.4c0,1.5,1.2,2.8,2.8,2.8s2.8-1.2,2.8-2.8" />
  <path id="XMLID_10_" fill="none" stroke="#FFFFFF" stroke-linecap="square" stroke-linejoin="round" stroke-miterlimit="10" d="
M52.6,87.4c0,1.5,1.2,2.8,2.8,2.8s2.8-1.2,2.8-2.8" />
  <line id="XMLID_19_" fill="none" stroke="#FFFFFF" stroke-linecap="round" stroke-linejoin="round" stroke-miterlimit="10" x1="37.5" y1="40.8" x2="47.5" y2="70.8" />
  <line id="XMLID_18_" fill="none" stroke="#FFFFFF" stroke-linecap="round" stroke-linejoin="round" stroke-miterlimit="10" x1="63.5" y1="40.8" x2="53.5" y2="70.8" />
</svg>
